<svg width="197" height="31" viewBox="0 0 197 31" fill="none" xmlns="http://www.w3.org/2000/svg">
<rect width="30.3529" height="30.3529" rx="6" fill="#503217"/>
<path d="M13.4461 16.5891C13.4004 16.5891 12.3934 16.5891 11.9356 16.5891C11.6915 16.5891 11.6152 16.4976 11.6152 16.2687C11.6152 15.6584 11.6152 15.0328 11.6152 14.4225C11.6152 14.1784 11.7068 14.1021 11.9356 14.1021L13.4461 14.1021C13.4461 14.0564 13.4461 13.1714 13.4461 12.7595C13.4461 12.1492 13.5529 11.5694 13.8581 11.0354C14.1785 10.4861 14.6362 10.12 15.216 9.90635C15.5974 9.76904 15.9789 9.70801 16.3908 9.70801L17.886 9.70801C18.0996 9.70801 18.1912 9.79955 18.1912 10.0132L18.1912 11.7525C18.1912 11.9661 18.0996 12.0576 17.886 12.0576C17.4741 12.0576 17.0621 12.0576 16.6502 12.0729C16.2382 12.0729 16.0246 12.2713 16.0246 12.6985C16.0094 13.1562 16.0246 13.5986 16.0246 14.0716L17.7945 14.0716C18.0386 14.0716 18.1301 14.1632 18.1301 14.4073L18.1301 16.2534C18.1301 16.4976 18.0539 16.5738 17.7945 16.5738C17.2452 16.5738 16.0704 16.5738 16.0246 16.5738L16.0246 21.5478C16.0246 21.8071 15.9483 21.8987 15.6737 21.8987C15.0329 21.8987 14.4073 21.8987 13.7665 21.8987C13.5377 21.8987 13.4461 21.8071 13.4461 21.5783C13.4461 19.9762 13.4461 16.6349 13.4461 16.5891Z" fill="#F2F2F2"/>
<rect x="55.3535" width="30.3529" height="30.3529" rx="6" fill="#503217"/>
<g clip-path="url(#clip0_1678_80)">
<path d="M77.2623 12.1595C77.2299 11.4248 77.1111 10.9197 76.9409 10.4821C76.7653 10.0175 76.4952 9.60153 76.1413 9.25576C75.7955 8.9046 75.3768 8.63174 74.9176 8.4589C74.4774 8.2887 73.975 8.16989 73.2402 8.1375C72.5001 8.10236 72.2651 8.09424 70.3877 8.09424C68.5104 8.09424 68.2754 8.10236 67.538 8.13476C66.8033 8.16715 66.2982 8.28607 65.8606 8.45616C65.3959 8.63174 64.9799 8.90186 64.6342 9.25576C64.283 9.60153 64.0103 10.0202 63.8373 10.4794C63.6671 10.9197 63.5483 11.4221 63.5159 12.1568C63.4808 12.897 63.4727 13.132 63.4727 15.0093C63.4727 16.8867 63.4808 17.1216 63.5132 17.8591C63.5456 18.5938 63.6645 19.0989 63.8347 19.5366C64.0103 20.0012 64.283 20.4171 64.6342 20.7629C64.9799 21.114 65.3986 21.3869 65.8578 21.5597C66.2982 21.7299 66.8005 21.8487 67.5353 21.8811C68.2727 21.9136 68.5078 21.9217 70.3851 21.9217C72.2624 21.9217 72.4974 21.9136 73.2349 21.8811C73.9696 21.8487 74.4747 21.7299 74.9122 21.5597C75.8415 21.2005 76.5762 20.4657 76.9355 19.5366C77.1056 19.0963 77.2245 18.5938 77.2569 17.8591C77.2893 17.1216 77.2974 16.8867 77.2974 15.0093C77.2974 13.132 77.2947 12.897 77.2623 12.1595ZM76.0171 17.8051C75.9873 18.4804 75.8739 18.845 75.7794 19.0881C75.547 19.6905 75.0689 20.1686 74.4666 20.401C74.2234 20.4955 73.8561 20.6089 73.1835 20.6386C72.4542 20.6711 72.2354 20.6791 70.3905 20.6791C68.5455 20.6791 68.3241 20.6711 67.5974 20.6386C66.9221 20.6089 66.5574 20.4955 66.3143 20.401C66.0145 20.2902 65.7417 20.1146 65.5202 19.885C65.2906 19.6608 65.115 19.3906 65.0042 19.0909C64.9097 18.8478 64.7962 18.4804 64.7666 17.8078C64.7341 17.0785 64.7261 16.8596 64.7261 15.0147C64.7261 13.1698 64.7341 12.9483 64.7666 12.2217C64.7962 11.5464 64.9097 11.1817 65.0042 10.9386C65.115 10.6387 65.2906 10.366 65.5229 10.1444C65.747 9.91481 66.0172 9.73923 66.317 9.62854C66.5602 9.534 66.9276 9.42057 67.6001 9.39082C68.3294 9.35842 68.5483 9.3503 70.3931 9.3503C72.2408 9.3503 72.4595 9.35842 73.1862 9.39082C73.8615 9.42057 74.2262 9.534 74.4693 9.62854C74.7691 9.73923 75.0419 9.91481 75.2634 10.1444C75.493 10.3686 75.6686 10.6387 75.7794 10.9386C75.8739 11.1817 75.9873 11.549 76.0171 12.2217C76.0495 12.951 76.0576 13.1698 76.0576 15.0147C76.0576 16.8596 76.0495 17.0757 76.0171 17.8051Z" fill="#F2F2F2"/>
<path d="M70.3861 11.457C68.4251 11.457 66.834 13.048 66.834 15.0091C66.834 16.9702 68.4251 18.5612 70.3861 18.5612C72.3472 18.5612 73.9381 16.9702 73.9381 15.0091C73.9381 13.048 72.3472 11.457 70.3861 11.457ZM70.3861 17.3133C69.1139 17.3133 68.0819 16.2814 68.0819 15.0091C68.0819 13.7368 69.1139 12.705 70.3861 12.705C71.6584 12.705 72.6902 13.7368 72.6902 15.0091C72.6902 16.2814 71.6584 17.3133 70.3861 17.3133Z" fill="#F2F2F2"/>
<path d="M74.7856 11.6891C74.7856 12.147 74.4142 12.5184 73.9562 12.5184C73.4983 12.5184 73.127 12.147 73.127 11.6891C73.127 11.2311 73.4983 10.8599 73.9562 10.8599C74.4142 10.8599 74.7856 11.2311 74.7856 11.6891Z" fill="#F2F2F2"/>
</g>
<rect x="110.705" width="30.3529" height="30.3529" rx="6" fill="#503217"/>
<path d="M132.154 10.8669C131.663 11.0795 131.156 11.2268 130.616 11.2922C131.172 10.965 131.598 10.4416 131.794 9.8037C131.271 10.1145 130.698 10.3271 130.093 10.458C129.602 9.93456 128.899 9.60742 128.13 9.60742C126.642 9.60742 125.448 10.8178 125.448 12.2899C125.448 12.5026 125.464 12.6989 125.513 12.8952C123.288 12.797 121.326 11.7175 120.001 10.0981C119.052 11.7992 120.115 13.2059 120.819 13.6803C120.393 13.6803 119.968 13.5494 119.608 13.3531C119.608 14.678 120.54 15.774 121.751 16.0193C121.489 16.1011 120.9 16.1502 120.54 16.0684C120.884 17.1316 121.882 17.9167 123.043 17.9331C122.127 18.6528 120.786 19.2253 119.068 19.0453C120.262 19.8141 121.669 20.2557 123.19 20.2557C128.13 20.2557 130.813 16.1665 130.813 12.6334C130.813 12.5189 130.813 12.4044 130.796 12.2899C131.352 11.881 131.81 11.4067 132.154 10.8669Z" fill="#F2F2F2"/>
<rect x="166.059" width="30.3529" height="30.3529" rx="6" fill="#503217"/>
<path d="M185.432 10.3535L177.035 10.3535C175.618 10.3535 174.488 11.5002 174.488 12.8998L174.488 17.4359C174.488 18.8523 175.635 19.9821 177.035 19.9821L185.432 19.9821C186.849 19.9821 187.978 18.8355 187.978 17.4359L187.978 12.8998C187.978 11.5002 186.832 10.3535 185.432 10.3535ZM179.463 17.2504L179.463 13.1021L183.004 15.1763L179.463 17.2504Z" fill="#F2F2F2"/>
<defs>
<clipPath id="clip0_1678_80">
<rect width="13.8275" height="13.8275" fill="white" transform="translate(63.4473 8.09424)"/>
</clipPath>
</defs>
</svg>
