<svg width="51" height="51" viewBox="0 0 51 51" fill="none" xmlns="http://www.w3.org/2000/svg">
<path d="M39.75 17.167H11.25C9.37513 17.167 8.4377 17.167 7.78054 17.6444C7.5683 17.7986 7.38166 17.9853 7.22746 18.1975C6.75 18.8547 6.75 19.7921 6.75 21.667V39.7503C6.75 41.6252 6.75 42.5626 7.22746 43.2198C7.38166 43.432 7.5683 43.6187 7.78054 43.7729C8.4377 44.2503 9.37513 44.2503 11.25 44.2503H39.75C41.6249 44.2503 42.5623 44.2503 43.2195 43.7729C43.4317 43.6187 43.6183 43.432 43.7725 43.2198C44.25 42.5626 44.25 41.6252 44.25 39.7503V21.667C44.25 19.7921 44.25 18.8547 43.7725 18.1975C43.6183 17.9853 43.4317 17.7986 43.2195 17.6444C42.5623 17.167 41.6249 17.167 39.75 17.167Z" fill="#E2DFCF" fill-opacity="0.18"/>
<path d="M33.8333 17.1667V13.95C33.8333 10.9502 33.8333 9.45032 33.0694 8.39886C32.8227 8.05928 32.5241 7.76065 32.1845 7.51393C31.133 6.75 29.6331 6.75 26.6333 6.75H24.3667C21.3669 6.75 19.867 6.75 18.8155 7.51393C18.4759 7.76065 18.1773 8.05928 17.9306 8.39886C17.1667 9.45032 17.1667 10.9502 17.1667 13.95V17.1667M31.75 30.7083H25.4993M25.4993 30.7083H19.25M25.4993 30.7083L25.5 36.9583M25.4993 30.7083L25.5 24.4583M11.25 44.25H39.75C41.6249 44.25 42.5623 44.25 43.2195 43.7725C43.4317 43.6183 43.6183 43.4317 43.7725 43.2195C44.25 42.5623 44.25 41.6249 44.25 39.75V21.6667C44.25 19.7918 44.25 18.8544 43.7725 18.1972C43.6183 17.985 43.4317 17.7983 43.2195 17.6441C42.5623 17.1667 41.6249 17.1667 39.75 17.1667H11.25C9.37513 17.1667 8.4377 17.1667 7.78054 17.6441C7.5683 17.7983 7.38166 17.985 7.22746 18.1972C6.75 18.8544 6.75 19.7918 6.75 21.6667V39.75C6.75 41.6249 6.75 42.5623 7.22746 43.2195C7.38166 43.4317 7.5683 43.6183 7.78054 43.7725C8.4377 44.25 9.37513 44.25 11.25 44.25Z" stroke="#503217" stroke-width="2.5" stroke-linecap="round" stroke-linejoin="round"/>
</svg>
