<svg width="51" height="51" viewBox="0 0 51 51" fill="none" xmlns="http://www.w3.org/2000/svg">
<path d="M44.0292 20.1775C41.8487 32.7408 25.4894 43.2087 25.4894 43.2087C25.4894 43.2087 9.00964 32.7405 6.94963 20.1782C4.88963 7.61584 19.3095 3.4279 25.4894 13.1659C31.6695 3.42773 46.2097 7.61414 44.0292 20.1775Z" fill="#E2DFCF" fill-opacity="0.18"/>
<path d="M6.75094 30.7114H11.033C11.4357 30.7114 11.6371 30.7114 11.8158 30.6399C11.8747 30.6164 11.9312 30.5873 11.9846 30.5531C12.1465 30.4492 12.2636 30.2853 12.4977 29.9576L15.8318 25.2898C16.3746 24.5299 16.646 24.15 17.0157 24.0652C17.1338 24.0381 17.2559 24.0327 17.3759 24.0492C17.7516 24.1011 18.0555 24.4556 18.6632 25.1646L21.8713 28.9073C22.4972 29.6376 22.8102 30.0027 23.1939 30.0506C23.3163 30.0659 23.4405 30.0584 23.5602 30.0285C23.9353 29.9348 24.2021 29.5346 24.7356 28.7343L30.1514 20.6106C30.7839 19.6619 31.1002 19.1875 31.5226 19.1139C31.6561 19.0906 31.7929 19.0947 31.9248 19.1259C32.3421 19.2247 32.6293 19.7172 33.2039 20.7021L38.5217 29.8183C38.7471 30.2048 38.8598 30.398 39.0314 30.5219C39.0878 30.5627 39.1483 30.5974 39.2119 30.6256C39.4054 30.7114 39.6291 30.7114 40.0765 30.7114H44.2509M44.0292 20.1775C41.8487 32.7408 25.4894 43.2087 25.4894 43.2087C25.4894 43.2087 9.00964 32.7405 6.94963 20.1782C4.88963 7.61584 19.3095 3.4279 25.4894 13.1659C31.6695 3.42773 46.2097 7.61414 44.0292 20.1775Z" stroke="#503217" stroke-width="2.5" stroke-linecap="round" stroke-linejoin="round"/>
</svg>
