<svg width="51" height="51" viewBox="0 0 51 51" fill="none" xmlns="http://www.w3.org/2000/svg">
<path d="M6.75 25.5C6.75 18.5964 12.3464 13 19.25 13H25.5H31.75C38.6536 13 44.25 18.5964 44.25 25.5C44.25 32.4036 38.6536 38 31.75 38H25.5H19.25C12.3464 38 6.75 32.4036 6.75 25.5Z" fill="#E2DFCF" fill-opacity="0.18"/>
<path d="M25.5 13H19.25C12.3464 13 6.75 18.5964 6.75 25.5C6.75 32.4036 12.3464 38 19.25 38H25.5M25.5 13H31.75C38.6536 13 44.25 18.5964 44.25 25.5C44.25 32.4036 38.6536 38 31.75 38H25.5M25.5 13V38" stroke="#503217" stroke-width="2.5" stroke-linejoin="round"/>
</svg>
