<svg width="51" height="51" viewBox="0 0 51 51" fill="none" xmlns="http://www.w3.org/2000/svg">
<path d="M20.291 25.5H25.4993H30.7077V39.0417C30.7077 41.9181 28.3758 44.25 25.4993 44.25C22.6229 44.25 20.291 41.9181 20.291 39.0417V25.5Z" fill="#E2DFCF" fill-opacity="0.18"/>
<path d="M20.2923 25.5H30.709M20.2923 25.5V39.0417C20.2923 41.9181 22.6242 44.25 25.5007 44.25V44.25C28.3771 44.25 30.709 41.9181 30.709 39.0417V25.5M20.2923 25.5V13.0208M30.709 25.5V13.0208M21.334 13H29.6673C31.3932 13 32.7923 11.6009 32.7923 9.875V9.875C32.7923 8.14911 31.3932 6.75 29.6673 6.75H21.334C19.6081 6.75 18.209 8.14911 18.209 9.875V9.875C18.209 11.6009 19.6081 13 21.334 13Z" stroke="#503217" stroke-width="2.5" stroke-linejoin="round"/>
</svg>
